<svg id="Layer_1" data-name="Layer 1" xmlns="http://www.w3.org/2000/svg" viewBox="0 0 638 181.4"><defs><style>.cls-1{fill:#069;}.cls-2{fill:#fff;}</style></defs><title>LinkedIn Corporation Logo Vector</title><path class="cls-1" d="M819,572.57a18.1,18.1,0,0,1-18.07,18.13H657.8a18.1,18.1,0,0,1-18.08-18.13V427.43A18.1,18.1,0,0,1,657.8,409.3H800.93A18.1,18.1,0,0,1,819,427.43Z" transform="translate(-181 -409.3)"/><path d="M181,445.88h24.12v86.64h42.53v20.31H181Z" transform="translate(-181 -409.3)"/><path d="M281.12,453.65c0,6.67-4.92,12.06-13,12.06-7.62,0-12.54-5.39-12.54-12.06s5.08-12.06,12.86-12.06S281,446.83,281.12,453.65Zm-24.91,99.18V475.24h24.12v77.59Z" transform="translate(-181 -409.3)"/><path d="M294.76,500c0-9.68-.31-17.77-.63-24.75h20.95L316.19,486h.47c3.18-5.08,10.95-12.54,24-12.54,15.87,0,27.78,10.63,27.78,33.48v45.86H344.27v-43c0-10-3.49-16.82-12.21-16.82-6.67,0-10.64,4.6-12.38,9a17.27,17.27,0,0,0-.79,6v44.75H294.76Z" transform="translate(-181 -409.3)"/><path d="M407,507.92h.32a104.62,104.62,0,0,1,5.55-9.36l15.71-23.32h29L429.8,506.65l31.74,46.18H431.86L413,520.94l-6,7.61v24.28H382.83V440.17H407Z" transform="translate(-181 -409.3)"/><path d="M480.26,521.73c.64,10,10.63,14.76,21.9,14.76a63.71,63.71,0,0,0,21.42-3.34l3.17,16.35c-7.93,3.33-17.61,4.92-28.08,4.92-26.34,0-41.42-15.23-41.42-39.51,0-19.68,12.22-41.42,39.19-41.42,25.08,0,34.6,19.52,34.6,38.72a58.32,58.32,0,0,1-.79,9.52Zm28.4-16.5c0-5.88-2.53-15.71-13.64-15.71-10.16,0-14.28,9.36-14.92,15.71Z" transform="translate(-181 -409.3)"/><path d="M615.77,440.17v89.49c0,8.73.32,17.94.64,23.17H595l-1-11.27h-.47c-4.76,8.57-14.29,13-24.28,13-18.41,0-33.17-15.71-33.17-39.83-.16-26.19,16.19-41.42,34.75-41.42,9.68,0,17,3.49,20.47,8.73h.32V440.17Zm-24.12,67.91a21.51,21.51,0,0,0-.32-4.44c-1.42-6.35-6.66-11.74-14.12-11.74-11.11,0-16.66,9.84-16.66,22.06,0,13.16,6.51,21.42,16.5,21.42a14.28,14.28,0,0,0,14.12-11.59,31.15,31.15,0,0,0,.48-5.55Z" transform="translate(-181 -409.3)"/><path class="cls-2" d="M698,453.65c0,6.67-4.92,12.06-13,12.06-7.62,0-12.54-5.39-12.54-12.06s5.08-12.06,12.86-12.06S697.88,446.83,698,453.65Zm-24.91,99.18V475.24h24.12v77.59Z" transform="translate(-181 -409.3)"/><path class="cls-2" d="M711.68,500c0-9.68-.31-17.77-.63-24.75H732L733.11,486h.47c3.17-5.08,10.95-12.54,24-12.54,15.87,0,27.77,10.63,27.77,33.48v45.86H761.19v-43c0-10-3.49-16.82-12.22-16.82-6.66,0-10.63,4.6-12.37,9a17.25,17.25,0,0,0-.8,6v44.75H711.68Z" transform="translate(-181 -409.3)"/></svg>