<svg xmlns="http://www.w3.org/2000/svg" xmlns:xlink="http://www.w3.org/1999/xlink" width="500" zoomAndPan="magnify" viewBox="0 0 375 374.999991" height="500" preserveAspectRatio="xMidYMid meet" version="1.0"><defs><clipPath id="8acf636a6e"><path d="M 24.496094 104.855469 L 361.996094 104.855469 L 361.996094 287.855469 L 24.496094 287.855469 Z M 24.496094 104.855469 " clip-rule="nonzero"/></clipPath></defs><g clip-path="url(#8acf636a6e)"><path fill="#000000" d="M 193.246094 104.855469 C 98.703125 104.855469 24.632812 145.050781 24.632812 196.355469 C 24.632812 247.660156 98.703125 287.855469 193.246094 287.855469 C 287.792969 287.855469 361.863281 247.660156 361.863281 196.355469 C 361.863281 145.050781 287.792969 104.855469 193.246094 104.855469 Z M 175.738281 133.007812 L 194.152344 133.007812 L 188.308594 161.164062 L 204.746094 161.164062 C 215.175781 161.164062 222.171875 162.621094 226.152344 166.277344 C 230.050781 169.878906 231.230469 175.789062 229.664062 183.847656 L 222.367188 217.472656 L 203.648438 217.472656 L 210.371094 186.375 C 211.195312 182.113281 210.867188 179.144531 209.4375 177.578125 C 208.011719 176.011719 204.882812 175.242188 200.191406 175.242188 L 185.453125 175.242188 L 176.5625 217.472656 L 158.121094 217.472656 Z M 94.886719 161.164062 L 132.347656 161.164062 C 150.214844 161.164062 161.027344 173.152344 156.800781 191.050781 C 151.890625 211.835938 138.714844 217.472656 114.511719 217.472656 L 102.929688 217.472656 L 99.253906 238.585938 L 80.644531 238.585938 Z M 242.425781 161.164062 L 279.886719 161.164062 C 297.753906 161.164062 308.566406 173.152344 304.339844 191.050781 C 299.429688 211.835938 286.253906 217.472656 262.050781 217.472656 L 250.46875 217.472656 L 246.789062 238.585938 L 228.183594 238.585938 Z M 110.832031 175.242188 L 105.535156 203.394531 L 117.558594 203.394531 C 127.957031 203.394531 137.617188 202.210938 139.238281 186.679688 C 139.839844 180.65625 137.34375 175.242188 125.324219 175.242188 Z M 258.371094 175.242188 L 253.074219 203.394531 L 265.09375 203.394531 C 275.496094 203.394531 285.15625 202.210938 286.777344 186.679688 C 287.378906 180.65625 284.882812 175.242188 272.863281 175.242188 Z M 258.371094 175.242188 " fill-opacity="1" fill-rule="nonzero"/></g></svg>